ISO-10303-21;
HEADER;
/* Generated by software containing ST-Developer
 * from STEP Tools, Inc. (www.steptools.com) 
 */

FILE_DESCRIPTION(
/* description */ (''),
/* implementation_level */ '2;1');

FILE_NAME(
/* name */ 'bottom_case.step',
/* time_stamp */ '2026-09-24T21:30:26+05:30',
/* author */ (''),
/* organization */ (''),
/* preprocessor_version */ 'ST-DEVELOPER v20.1',
/* originating_system */ 'Autodesk Translation Framework v15.8.0.0',
/* authorisation */ '');

FILE_SCHEMA (('AUTOMOTIVE_DESIGN { 1 0 10303 214 3 1 1 }'));
ENDSEC;

DATA;
#10=MECHANICAL_DESIGN_GEOMETRIC_PRESENTATION_REPRESENTATION('',(#24,#25),
#517);
#11=SHAPE_REPRESENTATION_RELATIONSHIP('SRR','None',#524,#12);
#12=ADVANCED_BREP_SHAPE_REPRESENTATION('',(#13),#516);
#13=MANIFOLD_SOLID_BREP('Bottom_Face',#301);
#14=FACE_BOUND('',#62,.T.);
#15=FACE_BOUND('',#63,.T.);
#16=FACE_BOUND('',#64,.T.);
#17=FACE_BOUND('',#65,.T.);
#18=FACE_BOUND('',#66,.T.);
#19=FACE_BOUND('',#68,.T.);
#20=FACE_BOUND('',#69,.T.);
#21=FACE_BOUND('',#70,.T.);
#22=FACE_BOUND('',#71,.T.);
#23=FACE_BOUND('',#72,.T.);
#24=STYLED_ITEM('',(#533),#299);
#25=STYLED_ITEM('',(#534),#13);
#26=PLANE('',#330);
#27=PLANE('',#334);
#28=PLANE('',#338);
#29=PLANE('',#339);
#30=PLANE('',#340);
#31=PLANE('',#344);
#32=PLANE('',#345);
#33=FACE_OUTER_BOUND('',#48,.T.);
#34=FACE_OUTER_BOUND('',#49,.T.);
#35=FACE_OUTER_BOUND('',#50,.T.);
#36=FACE_OUTER_BOUND('',#51,.T.);
#37=FACE_OUTER_BOUND('',#52,.T.);
#38=FACE_OUTER_BOUND('',#53,.T.);
#39=FACE_OUTER_BOUND('',#54,.T.);
#40=FACE_OUTER_BOUND('',#55,.T.);
#41=FACE_OUTER_BOUND('',#56,.T.);
#42=FACE_OUTER_BOUND('',#57,.T.);
#43=FACE_OUTER_BOUND('',#58,.T.);
#44=FACE_OUTER_BOUND('',#59,.T.);
#45=FACE_OUTER_BOUND('',#60,.T.);
#46=FACE_OUTER_BOUND('',#61,.T.);
#47=FACE_OUTER_BOUND('',#67,.T.);
#48=EDGE_LOOP('',(#200,#201,#202,#203));
#49=EDGE_LOOP('',(#204,#205,#206,#207));
#50=EDGE_LOOP('',(#208,#209,#210,#211));
#51=EDGE_LOOP('',(#212,#213,#214,#215));
#52=EDGE_LOOP('',(#216,#217,#218,#219));
#53=EDGE_LOOP('',(#220,#221,#222,#223));
#54=EDGE_LOOP('',(#224,#225,#226,#227));
#55=EDGE_LOOP('',(#228,#229,#230,#231));
#56=EDGE_LOOP('',(#232,#233,#234,#235));
#57=EDGE_LOOP('',(#236,#237,#238,#239));
#58=EDGE_LOOP('',(#240,#241,#242,#243));
#59=EDGE_LOOP('',(#244,#245,#246,#247));
#60=EDGE_LOOP('',(#248,#249,#250,#251));
#61=EDGE_LOOP('',(#252,#253,#254,#255,#256,#257,#258,#259));
#62=EDGE_LOOP('',(#260));
#63=EDGE_LOOP('',(#261));
#64=EDGE_LOOP('',(#262));
#65=EDGE_LOOP('',(#263));
#66=EDGE_LOOP('',(#264));
#67=EDGE_LOOP('',(#265,#266,#267,#268,#269,#270,#271,#272));
#68=EDGE_LOOP('',(#273));
#69=EDGE_LOOP('',(#274));
#70=EDGE_LOOP('',(#275));
#71=EDGE_LOOP('',(#276));
#72=EDGE_LOOP('',(#277));
#73=LINE('',#438,#96);
#74=LINE('',#444,#97);
#75=LINE('',#450,#98);
#76=LINE('',#456,#99);
#77=LINE('',#462,#100);
#78=LINE('',#467,#101);
#79=LINE('',#469,#102);
#80=LINE('',#471,#103);
#81=LINE('',#472,#104);
#82=LINE('',#478,#105);
#83=LINE('',#481,#106);
#84=LINE('',#483,#107);
#85=LINE('',#484,#108);
#86=LINE('',#490,#109);
#87=LINE('',#493,#110);
#88=LINE('',#495,#111);
#89=LINE('',#496,#112);
#90=LINE('',#499,#113);
#91=LINE('',#501,#114);
#92=LINE('',#502,#115);
#93=LINE('',#505,#116);
#94=LINE('',#507,#117);
#95=LINE('',#508,#118);
#96=VECTOR('',#352,1.7);
#97=VECTOR('',#359,1.7);
#98=VECTOR('',#366,1.7);
#99=VECTOR('',#373,1.7);
#100=VECTOR('',#380,1.7);
#101=VECTOR('',#385,10.);
#102=VECTOR('',#386,10.);
#103=VECTOR('',#387,10.);
#104=VECTOR('',#388,10.);
#105=VECTOR('',#395,10.);
#106=VECTOR('',#398,10.);
#107=VECTOR('',#399,10.);
#108=VECTOR('',#400,10.);
#109=VECTOR('',#407,10.);
#110=VECTOR('',#410,10.);
#111=VECTOR('',#411,10.);
#112=VECTOR('',#412,10.);
#113=VECTOR('',#415,10.);
#114=VECTOR('',#416,10.);
#115=VECTOR('',#417,10.);
#116=VECTOR('',#420,10.);
#117=VECTOR('',#421,10.);
#118=VECTOR('',#422,10.);
#119=CIRCLE('',#316,1.7);
#120=CIRCLE('',#317,1.7);
#121=CIRCLE('',#319,1.7);
#122=CIRCLE('',#320,1.7);
#123=CIRCLE('',#322,1.7);
#124=CIRCLE('',#323,1.7);
#125=CIRCLE('',#325,1.7);
#126=CIRCLE('',#326,1.7);
#127=CIRCLE('',#328,1.7);
#128=CIRCLE('',#329,1.7);
#129=CIRCLE('',#332,19.9999999999292);
#130=CIRCLE('',#333,19.9999999999292);
#131=CIRCLE('',#336,20.0000000000947);
#132=CIRCLE('',#337,20.0000000000947);
#133=CIRCLE('',#342,20.0000000000319);
#134=CIRCLE('',#343,20.0000000000319);
#135=VERTEX_POINT('',#435);
#136=VERTEX_POINT('',#437);
#137=VERTEX_POINT('',#441);
#138=VERTEX_POINT('',#443);
#139=VERTEX_POINT('',#447);
#140=VERTEX_POINT('',#449);
#141=VERTEX_POINT('',#453);
#142=VERTEX_POINT('',#455);
#143=VERTEX_POINT('',#459);
#144=VERTEX_POINT('',#461);
#145=VERTEX_POINT('',#465);
#146=VERTEX_POINT('',#466);
#147=VERTEX_POINT('',#468);
#148=VERTEX_POINT('',#470);
#149=VERTEX_POINT('',#474);
#150=VERTEX_POINT('',#476);
#151=VERTEX_POINT('',#480);
#152=VERTEX_POINT('',#482);
#153=VERTEX_POINT('',#486);
#154=VERTEX_POINT('',#488);
#155=VERTEX_POINT('',#492);
#156=VERTEX_POINT('',#494);
#157=VERTEX_POINT('',#498);
#158=VERTEX_POINT('',#500);
#159=VERTEX_POINT('',#504);
#160=VERTEX_POINT('',#506);
#161=EDGE_CURVE('',#135,#135,#119,.T.);
#162=EDGE_CURVE('',#135,#136,#73,.T.);
#163=EDGE_CURVE('',#136,#136,#120,.T.);
#164=EDGE_CURVE('',#137,#137,#121,.T.);
#165=EDGE_CURVE('',#137,#138,#74,.T.);
#166=EDGE_CURVE('',#138,#138,#122,.T.);
#167=EDGE_CURVE('',#139,#139,#123,.T.);
#168=EDGE_CURVE('',#139,#140,#75,.T.);
#169=EDGE_CURVE('',#140,#140,#124,.T.);
#170=EDGE_CURVE('',#141,#141,#125,.T.);
#171=EDGE_CURVE('',#141,#142,#76,.T.);
#172=EDGE_CURVE('',#142,#142,#126,.T.);
#173=EDGE_CURVE('',#143,#143,#127,.T.);
#174=EDGE_CURVE('',#143,#144,#77,.T.);
#175=EDGE_CURVE('',#144,#144,#128,.T.);
#176=EDGE_CURVE('',#145,#146,#78,.T.);
#177=EDGE_CURVE('',#146,#147,#79,.T.);
#178=EDGE_CURVE('',#148,#147,#80,.T.);
#179=EDGE_CURVE('',#145,#148,#81,.T.);
#180=EDGE_CURVE('',#149,#145,#129,.T.);
#181=EDGE_CURVE('',#150,#148,#130,.T.);
#182=EDGE_CURVE('',#149,#150,#82,.T.);
#183=EDGE_CURVE('',#151,#149,#83,.T.);
#184=EDGE_CURVE('',#152,#150,#84,.T.);
#185=EDGE_CURVE('',#151,#152,#85,.T.);
#186=EDGE_CURVE('',#153,#151,#131,.T.);
#187=EDGE_CURVE('',#154,#152,#132,.T.);
#188=EDGE_CURVE('',#153,#154,#86,.T.);
#189=EDGE_CURVE('',#155,#153,#87,.T.);
#190=EDGE_CURVE('',#156,#154,#88,.T.);
#191=EDGE_CURVE('',#155,#156,#89,.T.);
#192=EDGE_CURVE('',#157,#155,#90,.T.);
#193=EDGE_CURVE('',#158,#156,#91,.T.);
#194=EDGE_CURVE('',#157,#158,#92,.T.);
#195=EDGE_CURVE('',#159,#157,#93,.T.);
#196=EDGE_CURVE('',#160,#158,#94,.T.);
#197=EDGE_CURVE('',#159,#160,#95,.T.);
#198=EDGE_CURVE('',#146,#159,#133,.T.);
#199=EDGE_CURVE('',#147,#160,#134,.T.);
#200=ORIENTED_EDGE('',*,*,#161,.F.);
#201=ORIENTED_EDGE('',*,*,#162,.T.);
#202=ORIENTED_EDGE('',*,*,#163,.T.);
#203=ORIENTED_EDGE('',*,*,#162,.F.);
#204=ORIENTED_EDGE('',*,*,#164,.F.);
#205=ORIENTED_EDGE('',*,*,#165,.T.);
#206=ORIENTED_EDGE('',*,*,#166,.T.);
#207=ORIENTED_EDGE('',*,*,#165,.F.);
#208=ORIENTED_EDGE('',*,*,#167,.F.);
#209=ORIENTED_EDGE('',*,*,#168,.T.);
#210=ORIENTED_EDGE('',*,*,#169,.T.);
#211=ORIENTED_EDGE('',*,*,#168,.F.);
#212=ORIENTED_EDGE('',*,*,#170,.F.);
#213=ORIENTED_EDGE('',*,*,#171,.T.);
#214=ORIENTED_EDGE('',*,*,#172,.T.);
#215=ORIENTED_EDGE('',*,*,#171,.F.);
#216=ORIENTED_EDGE('',*,*,#173,.F.);
#217=ORIENTED_EDGE('',*,*,#174,.T.);
#218=ORIENTED_EDGE('',*,*,#175,.T.);
#219=ORIENTED_EDGE('',*,*,#174,.F.);
#220=ORIENTED_EDGE('',*,*,#176,.T.);
#221=ORIENTED_EDGE('',*,*,#177,.T.);
#222=ORIENTED_EDGE('',*,*,#178,.F.);
#223=ORIENTED_EDGE('',*,*,#179,.F.);
#224=ORIENTED_EDGE('',*,*,#180,.T.);
#225=ORIENTED_EDGE('',*,*,#179,.T.);
#226=ORIENTED_EDGE('',*,*,#181,.F.);
#227=ORIENTED_EDGE('',*,*,#182,.F.);
#228=ORIENTED_EDGE('',*,*,#183,.T.);
#229=ORIENTED_EDGE('',*,*,#182,.T.);
#230=ORIENTED_EDGE('',*,*,#184,.F.);
#231=ORIENTED_EDGE('',*,*,#185,.F.);
#232=ORIENTED_EDGE('',*,*,#186,.T.);
#233=ORIENTED_EDGE('',*,*,#185,.T.);
#234=ORIENTED_EDGE('',*,*,#187,.F.);
#235=ORIENTED_EDGE('',*,*,#188,.F.);
#236=ORIENTED_EDGE('',*,*,#189,.T.);
#237=ORIENTED_EDGE('',*,*,#188,.T.);
#238=ORIENTED_EDGE('',*,*,#190,.F.);
#239=ORIENTED_EDGE('',*,*,#191,.F.);
#240=ORIENTED_EDGE('',*,*,#192,.T.);
#241=ORIENTED_EDGE('',*,*,#191,.T.);
#242=ORIENTED_EDGE('',*,*,#193,.F.);
#243=ORIENTED_EDGE('',*,*,#194,.F.);
#244=ORIENTED_EDGE('',*,*,#195,.T.);
#245=ORIENTED_EDGE('',*,*,#194,.T.);
#246=ORIENTED_EDGE('',*,*,#196,.F.);
#247=ORIENTED_EDGE('',*,*,#197,.F.);
#248=ORIENTED_EDGE('',*,*,#198,.T.);
#249=ORIENTED_EDGE('',*,*,#197,.T.);
#250=ORIENTED_EDGE('',*,*,#199,.F.);
#251=ORIENTED_EDGE('',*,*,#177,.F.);
#252=ORIENTED_EDGE('',*,*,#199,.T.);
#253=ORIENTED_EDGE('',*,*,#196,.T.);
#254=ORIENTED_EDGE('',*,*,#193,.T.);
#255=ORIENTED_EDGE('',*,*,#190,.T.);
#256=ORIENTED_EDGE('',*,*,#187,.T.);
#257=ORIENTED_EDGE('',*,*,#184,.T.);
#258=ORIENTED_EDGE('',*,*,#181,.T.);
#259=ORIENTED_EDGE('',*,*,#178,.T.);
#260=ORIENTED_EDGE('',*,*,#173,.T.);
#261=ORIENTED_EDGE('',*,*,#170,.T.);
#262=ORIENTED_EDGE('',*,*,#167,.T.);
#263=ORIENTED_EDGE('',*,*,#164,.T.);
#264=ORIENTED_EDGE('',*,*,#161,.T.);
#265=ORIENTED_EDGE('',*,*,#198,.F.);
#266=ORIENTED_EDGE('',*,*,#176,.F.);
#267=ORIENTED_EDGE('',*,*,#180,.F.);
#268=ORIENTED_EDGE('',*,*,#183,.F.);
#269=ORIENTED_EDGE('',*,*,#186,.F.);
#270=ORIENTED_EDGE('',*,*,#189,.F.);
#271=ORIENTED_EDGE('',*,*,#192,.F.);
#272=ORIENTED_EDGE('',*,*,#195,.F.);
#273=ORIENTED_EDGE('',*,*,#175,.F.);
#274=ORIENTED_EDGE('',*,*,#172,.F.);
#275=ORIENTED_EDGE('',*,*,#169,.F.);
#276=ORIENTED_EDGE('',*,*,#166,.F.);
#277=ORIENTED_EDGE('',*,*,#163,.F.);
#278=CYLINDRICAL_SURFACE('',#315,1.7);
#279=CYLINDRICAL_SURFACE('',#318,1.7);
#280=CYLINDRICAL_SURFACE('',#321,1.7);
#281=CYLINDRICAL_SURFACE('',#324,1.7);
#282=CYLINDRICAL_SURFACE('',#327,1.7);
#283=CYLINDRICAL_SURFACE('',#331,19.9999999999292);
#284=CYLINDRICAL_SURFACE('',#335,20.0000000000947);
#285=CYLINDRICAL_SURFACE('',#341,20.0000000000319);
#286=ADVANCED_FACE('',(#33),#278,.F.);
#287=ADVANCED_FACE('',(#34),#279,.F.);
#288=ADVANCED_FACE('',(#35),#280,.F.);
#289=ADVANCED_FACE('',(#36),#281,.F.);
#290=ADVANCED_FACE('',(#37),#282,.F.);
#291=ADVANCED_FACE('',(#38),#26,.T.);
#292=ADVANCED_FACE('',(#39),#283,.T.);
#293=ADVANCED_FACE('',(#40),#27,.T.);
#294=ADVANCED_FACE('',(#41),#284,.T.);
#295=ADVANCED_FACE('',(#42),#28,.T.);
#296=ADVANCED_FACE('',(#43),#29,.T.);
#297=ADVANCED_FACE('',(#44),#30,.T.);
#298=ADVANCED_FACE('',(#45),#285,.T.);
#299=ADVANCED_FACE('',(#46,#14,#15,#16,#17,#18),#31,.T.);
#300=ADVANCED_FACE('',(#47,#19,#20,#21,#22,#23),#32,.F.);
#301=CLOSED_SHELL('',(#286,#287,#288,#289,#290,#291,#292,#293,#294,#295,
#296,#297,#298,#299,#300));
#302=DERIVED_UNIT_ELEMENT(#304,1.);
#303=DERIVED_UNIT_ELEMENT(#519,-3.);
#304=(
MASS_UNIT()
NAMED_UNIT(*)
SI_UNIT(.KILO.,.GRAM.)
);
#305=DERIVED_UNIT((#302,#303));
#306=MEASURE_REPRESENTATION_ITEM('density measure',
POSITIVE_RATIO_MEASURE(7850.),#305);
#307=PROPERTY_DEFINITION_REPRESENTATION(#312,#309);
#308=PROPERTY_DEFINITION_REPRESENTATION(#313,#310);
#309=REPRESENTATION('material name',(#311),#516);
#310=REPRESENTATION('density',(#306),#516);
#311=DESCRIPTIVE_REPRESENTATION_ITEM('Steel','Steel');
#312=PROPERTY_DEFINITION('material property','material name',#526);
#313=PROPERTY_DEFINITION('material property','density of part',#526);
#314=AXIS2_PLACEMENT_3D('',#433,#346,#347);
#315=AXIS2_PLACEMENT_3D('',#434,#348,#349);
#316=AXIS2_PLACEMENT_3D('',#436,#350,#351);
#317=AXIS2_PLACEMENT_3D('',#439,#353,#354);
#318=AXIS2_PLACEMENT_3D('',#440,#355,#356);
#319=AXIS2_PLACEMENT_3D('',#442,#357,#358);
#320=AXIS2_PLACEMENT_3D('',#445,#360,#361);
#321=AXIS2_PLACEMENT_3D('',#446,#362,#363);
#322=AXIS2_PLACEMENT_3D('',#448,#364,#365);
#323=AXIS2_PLACEMENT_3D('',#451,#367,#368);
#324=AXIS2_PLACEMENT_3D('',#452,#369,#370);
#325=AXIS2_PLACEMENT_3D('',#454,#371,#372);
#326=AXIS2_PLACEMENT_3D('',#457,#374,#375);
#327=AXIS2_PLACEMENT_3D('',#458,#376,#377);
#328=AXIS2_PLACEMENT_3D('',#460,#378,#379);
#329=AXIS2_PLACEMENT_3D('',#463,#381,#382);
#330=AXIS2_PLACEMENT_3D('',#464,#383,#384);
#331=AXIS2_PLACEMENT_3D('',#473,#389,#390);
#332=AXIS2_PLACEMENT_3D('',#475,#391,#392);
#333=AXIS2_PLACEMENT_3D('',#477,#393,#394);
#334=AXIS2_PLACEMENT_3D('',#479,#396,#397);
#335=AXIS2_PLACEMENT_3D('',#485,#401,#402);
#336=AXIS2_PLACEMENT_3D('',#487,#403,#404);
#337=AXIS2_PLACEMENT_3D('',#489,#405,#406);
#338=AXIS2_PLACEMENT_3D('',#491,#408,#409);
#339=AXIS2_PLACEMENT_3D('',#497,#413,#414);
#340=AXIS2_PLACEMENT_3D('',#503,#418,#419);
#341=AXIS2_PLACEMENT_3D('',#509,#423,#424);
#342=AXIS2_PLACEMENT_3D('',#510,#425,#426);
#343=AXIS2_PLACEMENT_3D('',#511,#427,#428);
#344=AXIS2_PLACEMENT_3D('',#512,#429,#430);
#345=AXIS2_PLACEMENT_3D('',#513,#431,#432);
#346=DIRECTION('axis',(0.,0.,1.));
#347=DIRECTION('refdir',(1.,0.,0.));
#348=DIRECTION('center_axis',(0.,0.,-1.));
#349=DIRECTION('ref_axis',(-1.,0.,0.));
#350=DIRECTION('center_axis',(0.,0.,1.));
#351=DIRECTION('ref_axis',(-1.,0.,0.));
#352=DIRECTION('',(0.,0.,1.));
#353=DIRECTION('center_axis',(0.,0.,1.));
#354=DIRECTION('ref_axis',(-1.,0.,0.));
#355=DIRECTION('center_axis',(0.,0.,-1.));
#356=DIRECTION('ref_axis',(-1.,0.,0.));
#357=DIRECTION('center_axis',(0.,0.,1.));
#358=DIRECTION('ref_axis',(-1.,0.,0.));
#359=DIRECTION('',(0.,0.,1.));
#360=DIRECTION('center_axis',(0.,0.,1.));
#361=DIRECTION('ref_axis',(-1.,0.,0.));
#362=DIRECTION('center_axis',(0.,0.,-1.));
#363=DIRECTION('ref_axis',(-1.,0.,0.));
#364=DIRECTION('center_axis',(0.,0.,1.));
#365=DIRECTION('ref_axis',(-1.,0.,0.));
#366=DIRECTION('',(0.,0.,1.));
#367=DIRECTION('center_axis',(0.,0.,1.));
#368=DIRECTION('ref_axis',(-1.,0.,0.));
#369=DIRECTION('center_axis',(0.,0.,-1.));
#370=DIRECTION('ref_axis',(-1.,0.,0.));
#371=DIRECTION('center_axis',(0.,0.,1.));
#372=DIRECTION('ref_axis',(-1.,0.,0.));
#373=DIRECTION('',(0.,0.,1.));
#374=DIRECTION('center_axis',(0.,0.,1.));
#375=DIRECTION('ref_axis',(-1.,0.,0.));
#376=DIRECTION('center_axis',(0.,0.,-1.));
#377=DIRECTION('ref_axis',(-1.,0.,0.));
#378=DIRECTION('center_axis',(0.,0.,1.));
#379=DIRECTION('ref_axis',(-1.,0.,0.));
#380=DIRECTION('',(0.,0.,1.));
#381=DIRECTION('center_axis',(0.,0.,1.));
#382=DIRECTION('ref_axis',(-1.,0.,0.));
#383=DIRECTION('center_axis',(0.611414617329876,0.791310410468206,0.));
#384=DIRECTION('ref_axis',(0.791310410468206,-0.611414617329876,0.));
#385=DIRECTION('',(0.791310410468206,-0.611414617329876,0.));
#386=DIRECTION('',(0.,0.,-1.));
#387=DIRECTION('',(0.791310410468206,-0.611414617329876,0.));
#388=DIRECTION('',(0.,0.,-1.));
#389=DIRECTION('center_axis',(0.,0.,-1.));
#390=DIRECTION('ref_axis',(-0.555378916484934,0.831597414091711,0.));
#391=DIRECTION('center_axis',(0.,0.,-1.));
#392=DIRECTION('ref_axis',(-0.555378916484934,0.831597414091711,0.));
#393=DIRECTION('center_axis',(0.,0.,-1.));
#394=DIRECTION('ref_axis',(-0.555378916484934,0.831597414091711,0.));
#395=DIRECTION('',(0.,0.,-1.));
#396=DIRECTION('center_axis',(-0.555378916484945,0.831597414091704,0.));
#397=DIRECTION('ref_axis',(0.831597414091704,0.555378916484945,0.));
#398=DIRECTION('',(0.831597414091704,0.555378916484945,0.));
#399=DIRECTION('',(0.831597414091704,0.555378916484945,0.));
#400=DIRECTION('',(0.,0.,-1.));
#401=DIRECTION('center_axis',(0.,0.,-1.));
#402=DIRECTION('ref_axis',(-0.999994982701563,-0.00316773920976054,0.));
#403=DIRECTION('center_axis',(0.,0.,-1.));
#404=DIRECTION('ref_axis',(-0.999994982701563,-0.00316773920976054,0.));
#405=DIRECTION('center_axis',(0.,0.,-1.));
#406=DIRECTION('ref_axis',(-0.999994982701563,-0.00316773920976054,0.));
#407=DIRECTION('',(0.,0.,-1.));
#408=DIRECTION('center_axis',(-0.999994982701563,-0.00316773920977068,0.));
#409=DIRECTION('ref_axis',(-0.00316773920977068,0.999994982701563,0.));
#410=DIRECTION('',(-0.00316773920977068,0.999994982701563,0.));
#411=DIRECTION('',(-0.00316773920977068,0.999994982701563,0.));
#412=DIRECTION('',(0.,0.,-1.));
#413=DIRECTION('center_axis',(0.00316773920984016,-0.999994982701563,0.));
#414=DIRECTION('ref_axis',(-0.999994982701563,-0.00316773920984016,0.));
#415=DIRECTION('',(-0.999994982701563,-0.00316773920984015,0.));
#416=DIRECTION('',(-0.999994982701563,-0.00316773920984015,0.));
#417=DIRECTION('',(0.,0.,-1.));
#418=DIRECTION('center_axis',(0.999994982701563,0.00316773920974958,0.));
#419=DIRECTION('ref_axis',(0.00316773920974958,-0.999994982701563,0.));
#420=DIRECTION('',(0.00316773920974958,-0.999994982701563,0.));
#421=DIRECTION('',(0.00316773920974958,-0.999994982701563,0.));
#422=DIRECTION('',(0.,0.,-1.));
#423=DIRECTION('center_axis',(0.,0.,-1.));
#424=DIRECTION('ref_axis',(0.611414617329855,0.791310410468223,0.));
#425=DIRECTION('center_axis',(0.,0.,-1.));
#426=DIRECTION('ref_axis',(0.611414617329855,0.791310410468223,0.));
#427=DIRECTION('center_axis',(0.,0.,-1.));
#428=DIRECTION('ref_axis',(0.611414617329855,0.791310410468223,0.));
#429=DIRECTION('center_axis',(0.,0.,-1.));
#430=DIRECTION('ref_axis',(-1.,0.,0.));
#431=DIRECTION('center_axis',(0.,0.,-1.));
#432=DIRECTION('ref_axis',(-1.,0.,0.));
#433=CARTESIAN_POINT('',(0.,0.,0.));
#434=CARTESIAN_POINT('Origin',(48.4134537884527,87.0708292721559,0.));
#435=CARTESIAN_POINT('',(50.1134537884527,87.0708292721559,-3.));
#436=CARTESIAN_POINT('Origin',(48.4134537884527,87.0708292721559,-3.));
#437=CARTESIAN_POINT('',(50.1134537884527,87.0708292721559,0.));
#438=CARTESIAN_POINT('',(50.1134537884527,87.0708292721559,0.));
#439=CARTESIAN_POINT('Origin',(48.4134537884527,87.0708292721559,0.));
#440=CARTESIAN_POINT('Origin',(88.8094530331491,54.6472487146527,0.));
#441=CARTESIAN_POINT('',(90.5094530331491,54.6472487146527,-3.));
#442=CARTESIAN_POINT('Origin',(88.8094530331491,54.6472487146527,-3.));
#443=CARTESIAN_POINT('',(90.5094530331491,54.6472487146527,0.));
#444=CARTESIAN_POINT('',(90.5094530331491,54.6472487146527,0.));
#445=CARTESIAN_POINT('Origin',(88.8094530331491,54.6472487146527,0.));
#446=CARTESIAN_POINT('Origin',(5.8012711551956,57.4434116378639,0.));
#447=CARTESIAN_POINT('',(7.5012711551956,57.4434116378639,-3.));
#448=CARTESIAN_POINT('Origin',(5.8012711551956,57.4434116378639,-3.));
#449=CARTESIAN_POINT('',(7.5012711551956,57.4434116378639,0.));
#450=CARTESIAN_POINT('',(7.5012711551956,57.4434116378639,0.));
#451=CARTESIAN_POINT('Origin',(5.8012711551956,57.4434116378639,0.));
#452=CARTESIAN_POINT('Origin',(89.7387129779207,5.28429535262805,0.));
#453=CARTESIAN_POINT('',(91.4387129779207,5.28429535262805,-3.));
#454=CARTESIAN_POINT('Origin',(89.7387129779207,5.28429535262805,-3.));
#455=CARTESIAN_POINT('',(91.4387129779207,5.28429535262805,0.));
#456=CARTESIAN_POINT('',(91.4387129779207,5.28429535262805,0.));
#457=CARTESIAN_POINT('Origin',(89.7387129779207,5.28429535262805,0.));
#458=CARTESIAN_POINT('Origin',(6.37380088006987,4.83473498148767,0.));
#459=CARTESIAN_POINT('',(8.07380088006987,4.83473498148767,-3.));
#460=CARTESIAN_POINT('Origin',(6.37380088006987,4.83473498148767,-3.));
#461=CARTESIAN_POINT('',(8.07380088006987,4.83473498148767,0.));
#462=CARTESIAN_POINT('',(8.07380088006987,4.83473498148767,0.));
#463=CARTESIAN_POINT('Origin',(6.37380088006987,4.83473498148767,0.));
#464=CARTESIAN_POINT('Origin',(60.9890857593905,87.2084394297467,0.));
#465=CARTESIAN_POINT('',(60.9890857593905,87.2084394297467,0.));
#466=CARTESIAN_POINT('',(88.06883263856,66.2849777180262,0.));
#467=CARTESIAN_POINT('',(60.9890857593905,87.2084394297467,0.));
#468=CARTESIAN_POINT('',(88.06883263856,66.2849777180262,-3.));
#469=CARTESIAN_POINT('',(88.06883263856,66.2849777180262,0.));
#470=CARTESIAN_POINT('',(60.9890857593905,87.2084394297467,-3.));
#471=CARTESIAN_POINT('',(60.9890857593905,87.2084394297467,-3.));
#472=CARTESIAN_POINT('',(60.9890857593905,87.2084394297467,0.));
#473=CARTESIAN_POINT('Origin',(48.7607934128348,71.3822312204397,0.));
#474=CARTESIAN_POINT('',(37.6532150831754,88.014179502215,0.));
#475=CARTESIAN_POINT('Origin',(48.7607934128348,71.3822312204397,0.));
#476=CARTESIAN_POINT('',(37.6532150831754,88.014179502215,-3.));
#477=CARTESIAN_POINT('Origin',(48.7607934128348,71.3822312204397,-3.));
#478=CARTESIAN_POINT('',(37.6532150831754,88.014179502215,0.));
#479=CARTESIAN_POINT('Origin',(8.72759482856759,68.6963228525459,0.));
#480=CARTESIAN_POINT('',(8.72759482856759,68.6963228525459,0.));
#481=CARTESIAN_POINT('',(8.72759482856759,68.6963228525459,0.));
#482=CARTESIAN_POINT('',(8.72759482856759,68.6963228525459,-3.));
#483=CARTESIAN_POINT('',(8.72759482856759,68.6963228525459,-3.));
#484=CARTESIAN_POINT('',(8.72759482856759,68.6963228525459,0.));
#485=CARTESIAN_POINT('Origin',(19.8351731583184,52.0643745706327,0.));
#486=CARTESIAN_POINT('',(-0.164726495807548,52.0010197864372,0.));
#487=CARTESIAN_POINT('Origin',(19.8351731583184,52.0643745706327,0.));
#488=CARTESIAN_POINT('',(-0.164726495807548,52.0010197864372,-3.));
#489=CARTESIAN_POINT('Origin',(19.8351731583184,52.0643745706327,-3.));
#490=CARTESIAN_POINT('',(-0.164726495807548,52.0010197864372,0.));
#491=CARTESIAN_POINT('Origin',(0.,0.,0.));
#492=CARTESIAN_POINT('',(0.,0.,0.));
#493=CARTESIAN_POINT('',(0.,0.,0.));
#494=CARTESIAN_POINT('',(0.,0.,-3.));
#495=CARTESIAN_POINT('',(0.,0.,-3.));
#496=CARTESIAN_POINT('',(0.,0.,0.));
#497=CARTESIAN_POINT('Origin',(95.9995183393492,0.304102964144652,0.));
#498=CARTESIAN_POINT('',(95.9995183393492,0.304102964144652,0.));
#499=CARTESIAN_POINT('',(95.9995183393492,0.304102964144652,0.));
#500=CARTESIAN_POINT('',(95.9995183393492,0.304102964144652,-3.));
#501=CARTESIAN_POINT('',(95.9995183393492,0.304102964144652,-3.));
#502=CARTESIAN_POINT('',(95.9995183393492,0.304102964144652,0.));
#503=CARTESIAN_POINT('Origin',(95.8404399460065,50.5221242928327,0.));
#504=CARTESIAN_POINT('',(95.8404399460065,50.5221242928327,0.));
#505=CARTESIAN_POINT('',(95.8404399460065,50.5221242928327,0.));
#506=CARTESIAN_POINT('',(95.8404399460065,50.5221242928327,-3.));
#507=CARTESIAN_POINT('',(95.8404399460065,50.5221242928327,-3.));
#508=CARTESIAN_POINT('',(95.8404399460065,50.5221242928327,0.));
#509=CARTESIAN_POINT('Origin',(75.8405402919434,50.4587695086365,0.));
#510=CARTESIAN_POINT('Origin',(75.8405402919434,50.4587695086365,0.));
#511=CARTESIAN_POINT('Origin',(75.8405402919434,50.4587695086365,-3.));
#512=CARTESIAN_POINT('Origin',(47.9173457487865,45.6911156101844,-3.));
#513=CARTESIAN_POINT('Origin',(47.9173457487865,45.6911156101844,0.));
#514=UNCERTAINTY_MEASURE_WITH_UNIT(LENGTH_MEASURE(0.01),#518,
'DISTANCE_ACCURACY_VALUE',
'Maximum model space distance between geometric entities at asserted c
onnectivities');
#515=UNCERTAINTY_MEASURE_WITH_UNIT(LENGTH_MEASURE(0.01),#518,
'DISTANCE_ACCURACY_VALUE',
'Maximum model space distance between geometric entities at asserted c
onnectivities');
#516=(
GEOMETRIC_REPRESENTATION_CONTEXT(3)
GLOBAL_UNCERTAINTY_ASSIGNED_CONTEXT((#514))
GLOBAL_UNIT_ASSIGNED_CONTEXT((#518,#520,#521))
REPRESENTATION_CONTEXT('','3D')
);
#517=(
GEOMETRIC_REPRESENTATION_CONTEXT(3)
GLOBAL_UNCERTAINTY_ASSIGNED_CONTEXT((#515))
GLOBAL_UNIT_ASSIGNED_CONTEXT((#518,#520,#521))
REPRESENTATION_CONTEXT('','3D')
);
#518=(
LENGTH_UNIT()
NAMED_UNIT(*)
SI_UNIT(.MILLI.,.METRE.)
);
#519=(
LENGTH_UNIT()
NAMED_UNIT(*)
SI_UNIT($,.METRE.)
);
#520=(
NAMED_UNIT(*)
PLANE_ANGLE_UNIT()
SI_UNIT($,.RADIAN.)
);
#521=(
NAMED_UNIT(*)
SI_UNIT($,.STERADIAN.)
SOLID_ANGLE_UNIT()
);
#522=SHAPE_DEFINITION_REPRESENTATION(#523,#524);
#523=PRODUCT_DEFINITION_SHAPE('',$,#526);
#524=SHAPE_REPRESENTATION('',(#314),#516);
#525=PRODUCT_DEFINITION_CONTEXT('part definition',#530,'design');
#526=PRODUCT_DEFINITION('2026-08-27-00-34-47-002',
'hackpad (~recovered)',#527,#525);
#527=PRODUCT_DEFINITION_FORMATION('',$,#532);
#528=PRODUCT_RELATED_PRODUCT_CATEGORY('hackpad (~recovered)',
'hackpad (~recovered)',(#532));
#529=APPLICATION_PROTOCOL_DEFINITION('international standard',
'automotive_design',2009,#530);
#530=APPLICATION_CONTEXT(
'Core Data for Automotive Mechanical Design Process');
#531=PRODUCT_CONTEXT('part definition',#530,'mechanical');
#532=PRODUCT('2026-08-27-00-34-47-002','hackpad (~recovered)',$,(#531));
#533=PRESENTATION_STYLE_ASSIGNMENT((#535));
#534=PRESENTATION_STYLE_ASSIGNMENT((#536));
#535=SURFACE_STYLE_USAGE(.BOTH.,#537);
#536=SURFACE_STYLE_USAGE(.BOTH.,#538);
#537=SURFACE_SIDE_STYLE('',(#539));
#538=SURFACE_SIDE_STYLE('',(#540));
#539=SURFACE_STYLE_FILL_AREA(#541);
#540=SURFACE_STYLE_FILL_AREA(#542);
#541=FILL_AREA_STYLE('Steel - Satin',(#543));
#542=FILL_AREA_STYLE('Plastic - Translucent Matte (Gray)',(#544));
#543=FILL_AREA_STYLE_COLOUR('Steel - Satin',#545);
#544=FILL_AREA_STYLE_COLOUR('Plastic - Translucent Matte (Gray)',#546);
#545=COLOUR_RGB('Steel - Satin',0.627450980392157,0.627450980392157,0.627450980392157);
#546=COLOUR_RGB('Plastic - Translucent Matte (Gray)',0.701960784313725,
0.701960784313725,0.701960784313725);
ENDSEC;
END-ISO-10303-21;
